# xmcd
#
# Track frame offsets: 
#        150
#        10387
#        22425
#        36150
#        45300
#        58837
#        70763
#        81638
#        98288
#        112125
#        121800
#        134588
#        149400
#        158812
#
# Disc length: 2284 seconds
#
# Revision: 0
# Processed by: cddbd v1.5.2PL0 Copyright (c) Steve Scherf et al.
# Submitted via: ExactAudioCopy v0.99pb4
#
DISCID=c808ea0e
DTITLE=Sizemore, Charlie - Heartache Looking For A Home
DYEAR=2011
DGENRE=Bluegrass
TTITLE0=Down In The Quarter
TTITLE1=Red Wicked Wine
TTITLE2=No Lawyers In Heaven
TTITLE3=Heartache Looking For A Home
TTITLE4=Feelin' Like El Paso
TTITLE5=Slow Goin'
TTITLE6=Walking The Floor Over Me
TTITLE7=I Don't Remember Loving You
TTITLE8=Poor Rambler
TTITLE9=Ashley Judd
TTITLE10=Fords Of Pittman
TTITLE11=Pay No Attention To Alice
TTITLE12=Going to Georgia
TTITLE13=Crossing Over Into The Valley
EXTD=
EXTT0=
EXTT1=
EXTT2=
EXTT3=
EXTT4=
EXTT5=
EXTT6=
EXTT7=
EXTT8=
EXTT9=
EXTT10=
EXTT11=
EXTT12=
EXTT13=
PLAYORDER=
